<svg class="marks" width="949" height="246" viewBox="0 0 949 246" version="1.1" xmlns="http://www.w3.org/2000/svg" xmlns:xlink="http://www.w3.org/1999/xlink"><g transform="translate(6,12)"><g class="mark-group role-frame root"><g transform="translate(0,0)"><path class="background" d="M0,0h0v200h0Z" style="fill: none;"></path><g><g class="mark-group role-scope concat_0_group"><g transform="translate(0,0)"><path class="background" d="M0.5,0.5h350v200h-350Z" style="fill: transparent; stroke: #ddd;"></path><g><g class="mark-group role-scope concat_0_pathgroup"><g transform="translate(0,0)"><path class="background" d="M0,0h350v200h-350Z" style="fill: none;"></path><g><g class="mark-area role-mark concat_0_marks"><path d="M350,199.96566666666666L340.7954463578068,199.96677777777776L331.5908927156135,199.96677777777776L322.36112111823616,199.96677777777776L313.15656747604294,199.96677777777776L303.95201383384966,199.96677777777776L294.74746019165644,199.96677777777776L285.51768859427915,199.96666666666667L276.3131349520859,199.96666666666667L267.10858130989266,199.96655555555554L257.90402766769944,199.96677777777776L248.67425607032206,199.96677777777776L239.46970242812884,199.96677777777776L230.2651487859356,199.9661111111111L221.06059514374235,199.9657777777778L211.830823546365,199.96588888888888L202.62626990417175,199.9657777777778L193.4217162619785,199.96488888888888L184.21716261978528,199.96455555555556L174.98739102240796,199.96488888888888L165.78283738021472,199.96422222222222L156.57828373802147,199.96444444444444L147.37373009582822,199.96355555555556L138.1439584984509,199.96277777777777L128.93940485625765,199.96277777777777L119.73485121406442,199.96277777777777L110.53029757187117,199.96133333333333L101.30052597449385,199.96L92.0959723323006,199.9608888888889L82.89141869010736,199.96655555555554L73.68686504791411,199.97355555555555L64.45709345053679,199.97733333333332L55.25253980834354,199.978L46.0479861661503,199.97722222222222L36.843432523957055,199.97644444444444L27.613660926579726,199.977L18.409107284386483,199.97622222222222L9.204553642193241,199.97155555555557L0,199.96977777777778L0,200L9.204553642193241,200L18.409107284386483,200L27.613660926579726,200L36.843432523957055,200L46.0479861661503,200L55.25253980834354,200L64.45709345053679,200L73.68686504791411,200L82.89141869010736,200L92.0959723323006,200L101.30052597449385,200L110.53029757187117,200L119.73485121406442,200L128.93940485625765,200L138.1439584984509,200L147.37373009582822,200L156.57828373802147,200L165.78283738021472,200L174.98739102240796,200L184.21716261978528,200L193.4217162619785,200L202.62626990417175,200L211.830823546365,200L221.06059514374235,200L230.2651487859356,200L239.46970242812884,200L248.67425607032206,200L257.90402766769944,200L267.10858130989266,200L276.3131349520859,200L285.51768859427915,200L294.74746019165644,200L303.95201383384966,200L313.15656747604294,200L322.36112111823616,200L331.5908927156135,200L340.7954463578068,200L350,200Z" style="fill: #66ccff;"></path></g></g></g><g transform="translate(0,0)"><path class="background" d="M0,0h350v200h-350Z" style="fill: none;"></path><g><g class="mark-area role-mark concat_0_marks"><path d="M350,17.568888888888893L340.7954463578068,41.20055555555555L331.5908927156135,57.405111111111125L322.36112111823616,70.55333333333334L313.15656747604294,82.98566666666665L303.95201383384966,95.9827777777778L294.74746019165644,112.3778888888889L285.51768859427915,124.28744444444445L276.3131349520859,135.34466666666668L267.10858130989266,144.8401111111111L257.90402766769944,153.0846666666667L248.67425607032206,159.83044444444442L239.46970242812884,164.43777777777777L230.2651487859356,169.39988888888888L221.06059514374235,172.7818888888889L211.830823546365,176.35922222222223L202.62626990417175,178.6027777777778L193.4217162619785,180.84833333333333L184.21716261978528,183.54822222222222L174.98739102240796,185.03822222222223L165.78283738021472,186.6598888888889L156.57828373802147,188.5971111111111L147.37373009582822,190.68277777777777L138.1439584984509,192.23866666666666L128.93940485625765,192.94877777777776L119.73485121406442,194.29733333333334L110.53029757187117,194.76733333333334L101.30052597449385,195.66344444444445L92.0959723323006,196.20955555555557L82.89141869010736,196.773L73.68686504791411,197.129L64.45709345053679,197.3672222222222L55.25253980834354,197.8047777777778L46.0479861661503,198.05911111111112L36.843432523957055,198.32733333333334L27.613660926579726,198.4512222222222L18.409107284386483,198.6627777777778L9.204553642193241,198.82766666666666L0,199.01566666666668L0,199.96977777777778L9.204553642193241,199.97155555555557L18.409107284386483,199.97622222222222L27.613660926579726,199.977L36.843432523957055,199.97644444444444L46.0479861661503,199.97722222222222L55.25253980834354,199.978L64.45709345053679,199.97733333333332L73.68686504791411,199.97355555555555L82.89141869010736,199.96655555555554L92.0959723323006,199.9608888888889L101.30052597449385,199.96L110.53029757187117,199.96133333333333L119.73485121406442,199.96277777777777L128.93940485625765,199.96277777777777L138.1439584984509,199.96277777777777L147.37373009582822,199.96355555555556L156.57828373802147,199.96444444444444L165.78283738021472,199.96422222222222L174.98739102240796,199.96488888888888L184.21716261978528,199.96455555555556L193.4217162619785,199.96488888888888L202.62626990417175,199.9657777777778L211.830823546365,199.96588888888888L221.06059514374235,199.9657777777778L230.2651487859356,199.9661111111111L239.46970242812884,199.96677777777776L248.67425607032206,199.96677777777776L257.90402766769944,199.96677777777776L267.10858130989266,199.96655555555554L276.3131349520859,199.96666666666667L285.51768859427915,199.96666666666667L294.74746019165644,199.96677777777776L303.95201383384966,199.96677777777776L313.15656747604294,199.96677777777776L322.36112111823616,199.96677777777776L331.5908927156135,199.96677777777776L340.7954463578068,199.96677777777776L350,199.96566666666666Z" style="fill: #ff99cc;"></path></g></g></g></g><g class="mark-group role-axis"><g transform="translate(0.5,200.5)"><path class="background" d="M0,0h0v0h0Z" style="pointer-events: none; fill: none;"></path><g><g class="mark-rule role-axis-tick" style="pointer-events: none;"><line transform="translate(28,0)" x2="0" y2="15" style="fill: none; stroke: #888; stroke-width: 1; opacity: 1;"></line><line transform="translate(74,0)" x2="0" y2="15" style="fill: none; stroke: #888; stroke-width: 1; opacity: 1;"></line><line transform="translate(120,0)" x2="0" y2="15" style="fill: none; stroke: #888; stroke-width: 1; opacity: 1;"></line><line transform="translate(166,0)" x2="0" y2="15" style="fill: none; stroke: #888; stroke-width: 1; opacity: 1;"></line><line transform="translate(212,0)" x2="0" y2="15" style="fill: none; stroke: #888; stroke-width: 1; opacity: 1;"></line><line transform="translate(258,0)" x2="0" y2="15" style="fill: none; stroke: #888; stroke-width: 1; opacity: 1;"></line><line transform="translate(304,0)" x2="0" y2="15" style="fill: none; stroke: #888; stroke-width: 1; opacity: 1;"></line><line transform="translate(350,0)" x2="0" y2="15" style="fill: none; stroke: #888; stroke-width: 1; opacity: 1;"></line></g><g class="mark-text role-axis-label" style="pointer-events: none;"><text text-anchor="middle" transform="translate(27.613660926579726,25)" style="font: 10px sans-serif; fill: #000; opacity: 1;">1980</text><text text-anchor="middle" transform="translate(73.68686504791411,25)" style="font: 10px sans-serif; fill: #000; opacity: 1;">1985</text><text text-anchor="middle" transform="translate(119.73485121406442,25)" style="font: 10px sans-serif; fill: #000; opacity: 1;">1990</text><text text-anchor="middle" transform="translate(165.78283738021472,25)" style="font: 10px sans-serif; fill: #000; opacity: 1;">1995</text><text text-anchor="middle" transform="translate(211.830823546365,25)" style="font: 10px sans-serif; fill: #000; opacity: 1;">2000</text><text text-anchor="middle" transform="translate(257.90402766769944,25)" style="font: 10px sans-serif; fill: #000; opacity: 1;">2005</text><text text-anchor="middle" transform="translate(303.95201383384966,25)" style="font: 10px sans-serif; fill: #000; opacity: 1;">2010</text><text text-anchor="end" transform="translate(350,25)" style="font: 10px sans-serif; fill: #000; opacity: 1;">2015</text></g><g class="mark-rule role-axis-domain" style="pointer-events: none;"><line transform="translate(0,0)" x2="350" y2="0" style="fill: none; stroke: #888; stroke-width: 1; opacity: 1;"></line></g></g></g></g><g class="mark-group role-axis"><g transform="translate(350.5,0.5)"><path class="background" d="M0,0h0v0h0Z" style="pointer-events: none; fill: none;"></path><g><g class="mark-rule role-axis-tick" style="pointer-events: none;"><line transform="translate(0,200)" x2="5" y2="0" style="fill: none; stroke: #888; stroke-width: 1; opacity: 1;"></line><line transform="translate(0,144)" x2="5" y2="0" style="fill: none; stroke: #888; stroke-width: 1; opacity: 1;"></line><line transform="translate(0,89)" x2="5" y2="0" style="fill: none; stroke: #888; stroke-width: 1; opacity: 1;"></line><line transform="translate(0,33)" x2="5" y2="0" style="fill: none; stroke: #888; stroke-width: 1; opacity: 1;"></line></g><g class="mark-text role-axis-label" style="pointer-events: none;"><text text-anchor="start" transform="translate(7,203)" style="font: 10px sans-serif; fill: #000; opacity: 1;">0</text><text text-anchor="start" transform="translate(7,147.44444444444446)" style="font: 10px sans-serif; fill: #000; opacity: 1;">5,000</text><text text-anchor="start" transform="translate(7,91.88888888888889)" style="font: 10px sans-serif; fill: #000; opacity: 1;">10,000</text><text text-anchor="start" transform="translate(7,36.333333333333314)" style="font: 10px sans-serif; fill: #000; opacity: 1;">15,000</text></g><g class="mark-rule role-axis-domain" style="pointer-events: none;"><line transform="translate(0,200)" x2="0" y2="-200" style="fill: none; stroke: #888; stroke-width: 1; opacity: 1;"></line></g><g class="mark-text role-axis-title" style="pointer-events: none;"><text text-anchor="middle" transform="translate(42.5859375,100) rotate(90) translate(0,-2)" style="font: bold 11px sans-serif; fill: #000; opacity: 1;">Sum of Money in Billions</text></g></g></g></g></g></g></g><g class="mark-group role-scope concat_1_group"><g transform="translate(418,0)"><path class="background" d="M0.5,0.5h350v200h-350Z" style="fill: transparent; stroke: #ddd;"></path><g><g class="mark-group role-scope concat_1_pathgroup"><g transform="translate(0,0)"><path class="background" d="M0,0h350v200h-350Z" style="fill: none;"></path><g><g class="mark-area role-mark concat_1_marks"><path d="M350,193.82L340.7954463578068,194.02L331.5908927156135,194.02L322.36112111823616,194.02L313.15656747604294,194.02L303.95201383384966,194.02L294.74746019165644,194.02L285.51768859427915,194L276.3131349520859,194L267.10858130989266,193.98L257.90402766769944,194.02L248.67425607032206,194.02L239.46970242812884,194.02L230.2651487859356,193.9L221.06059514374235,193.84L211.830823546365,193.86L202.62626990417175,193.84L193.4217162619785,193.68L184.21716261978528,193.62L174.98739102240796,193.68L165.78283738021472,193.56L156.57828373802147,193.6L147.37373009582822,193.44L138.1439584984509,193.3L128.93940485625765,193.3L119.73485121406442,193.3L110.53029757187117,193.04L101.30052597449385,192.8L92.0959723323006,192.96L82.89141869010736,193.98L73.68686504791411,195.24L64.45709345053679,195.92L55.25253980834354,196.04L46.0479861661503,195.9L36.843432523957055,195.76L27.613660926579726,195.86L18.409107284386483,195.72L9.204553642193241,194.88L0,194.56L0,200L9.204553642193241,200L18.409107284386483,200L27.613660926579726,200L36.843432523957055,200L46.0479861661503,200L55.25253980834354,200L64.45709345053679,200L73.68686504791411,200L82.89141869010736,200L92.0959723323006,200L101.30052597449385,200L110.53029757187117,200L119.73485121406442,200L128.93940485625765,200L138.1439584984509,200L147.37373009582822,200L156.57828373802147,200L165.78283738021472,200L174.98739102240796,200L184.21716261978528,200L193.4217162619785,200L202.62626990417175,200L211.830823546365,200L221.06059514374235,200L230.2651487859356,200L239.46970242812884,200L248.67425607032206,200L257.90402766769944,200L267.10858130989266,200L276.3131349520859,200L285.51768859427915,200L294.74746019165644,200L303.95201383384966,200L313.15656747604294,200L322.36112111823616,200L331.5908927156135,200L340.7954463578068,200L350,200Z" style="fill: #66ccff;"></path></g></g></g><g transform="translate(0,0)"><path class="background" d="M0,0h350v200h-350Z" style="fill: none;"></path><g><g class="mark-area role-mark concat_1_marks"><path d="M350,13.288000000000011L340.7954463578068,26.858000000000033L331.5908927156135,39.392000000000024L322.36112111823616,46.976L313.15656747604294,55.25L303.95201383384966,64.868L294.74746019165644,80.91599999999998L285.51768859427915,96.072L276.3131349520859,105.554L267.10858130989266,114.316L257.90402766769944,118.322L248.67425607032206,120.05600000000001L239.46970242812884,117.34599999999999L230.2651487859356,119.28800000000001L221.06059514374235,117.162L211.830823546365,122.45400000000001L202.62626990417175,123.79L193.4217162619785,125.58000000000001L184.21716261978528,127.76L174.98739102240796,132.424L165.78283738021472,138.13400000000001L156.57828373802147,144.132L147.37373009582822,149.458L138.1439584984509,151.344L128.93940485625765,147.51600000000002L119.73485121406442,155.78199999999998L110.53029757187117,158.086L101.30052597449385,163.422L92.0959723323006,166.002L82.89141869010736,169.562L73.68686504791411,171.94400000000002L64.45709345053679,174.766L55.25253980834354,180.508L46.0479861661503,180.172L36.843432523957055,181.22L27.613660926579726,182.686L18.409107284386483,184.028L9.204553642193241,184.492L0,185.192L0,194.56L9.204553642193241,194.88L18.409107284386483,195.72L27.613660926579726,195.86L36.843432523957055,195.76L46.0479861661503,195.9L55.25253980834354,196.04L64.45709345053679,195.92L73.68686504791411,195.24L82.89141869010736,193.98L92.0959723323006,192.96L101.30052597449385,192.8L110.53029757187117,193.04L119.73485121406442,193.3L128.93940485625765,193.3L138.1439584984509,193.3L147.37373009582822,193.44L156.57828373802147,193.6L165.78283738021472,193.56L174.98739102240796,193.68L184.21716261978528,193.62L193.4217162619785,193.68L202.62626990417175,193.84L211.830823546365,193.86L221.06059514374235,193.84L230.2651487859356,193.9L239.46970242812884,194.02L248.67425607032206,194.02L257.90402766769944,194.02L267.10858130989266,193.98L276.3131349520859,194L285.51768859427915,194L294.74746019165644,194.02L303.95201383384966,194.02L313.15656747604294,194.02L322.36112111823616,194.02L331.5908927156135,194.02L340.7954463578068,194.02L350,193.82Z" style="fill: #ff99cc;"></path></g></g></g></g><g class="mark-group role-axis"><g transform="translate(0.5,200.5)"><path class="background" d="M0,0h0v0h0Z" style="pointer-events: none; fill: none;"></path><g><g class="mark-rule role-axis-tick" style="pointer-events: none;"><line transform="translate(28,0)" x2="0" y2="15" style="fill: none; stroke: #888; stroke-width: 1; opacity: 1;"></line><line transform="translate(74,0)" x2="0" y2="15" style="fill: none; stroke: #888; stroke-width: 1; opacity: 1;"></line><line transform="translate(120,0)" x2="0" y2="15" style="fill: none; stroke: #888; stroke-width: 1; opacity: 1;"></line><line transform="translate(166,0)" x2="0" y2="15" style="fill: none; stroke: #888; stroke-width: 1; opacity: 1;"></line><line transform="translate(212,0)" x2="0" y2="15" style="fill: none; stroke: #888; stroke-width: 1; opacity: 1;"></line><line transform="translate(258,0)" x2="0" y2="15" style="fill: none; stroke: #888; stroke-width: 1; opacity: 1;"></line><line transform="translate(304,0)" x2="0" y2="15" style="fill: none; stroke: #888; stroke-width: 1; opacity: 1;"></line><line transform="translate(350,0)" x2="0" y2="15" style="fill: none; stroke: #888; stroke-width: 1; opacity: 1;"></line></g><g class="mark-text role-axis-label" style="pointer-events: none;"><text text-anchor="middle" transform="translate(27.613660926579726,25)" style="font: 10px sans-serif; fill: #000; opacity: 1;">1980</text><text text-anchor="middle" transform="translate(73.68686504791411,25)" style="font: 10px sans-serif; fill: #000; opacity: 1;">1985</text><text text-anchor="middle" transform="translate(119.73485121406442,25)" style="font: 10px sans-serif; fill: #000; opacity: 1;">1990</text><text text-anchor="middle" transform="translate(165.78283738021472,25)" style="font: 10px sans-serif; fill: #000; opacity: 1;">1995</text><text text-anchor="middle" transform="translate(211.830823546365,25)" style="font: 10px sans-serif; fill: #000; opacity: 1;">2000</text><text text-anchor="middle" transform="translate(257.90402766769944,25)" style="font: 10px sans-serif; fill: #000; opacity: 1;">2005</text><text text-anchor="middle" transform="translate(303.95201383384966,25)" style="font: 10px sans-serif; fill: #000; opacity: 1;">2010</text><text text-anchor="end" transform="translate(350,25)" style="font: 10px sans-serif; fill: #000; opacity: 1;">2015</text></g><g class="mark-rule role-axis-domain" style="pointer-events: none;"><line transform="translate(0,0)" x2="350" y2="0" style="fill: none; stroke: #888; stroke-width: 1; opacity: 1;"></line></g></g></g></g><g class="mark-group role-axis"><g transform="translate(350.5,0.5)"><path class="background" d="M0,0h0v0h0Z" style="pointer-events: none; fill: none;"></path><g><g class="mark-rule role-axis-tick" style="pointer-events: none;"><line transform="translate(0,200)" x2="5" y2="0" style="fill: none; stroke: #888; stroke-width: 1; opacity: 1;"></line><line transform="translate(0,160)" x2="5" y2="0" style="fill: none; stroke: #888; stroke-width: 1; opacity: 1;"></line><line transform="translate(0,120)" x2="5" y2="0" style="fill: none; stroke: #888; stroke-width: 1; opacity: 1;"></line><line transform="translate(0,80)" x2="5" y2="0" style="fill: none; stroke: #888; stroke-width: 1; opacity: 1;"></line><line transform="translate(0,40)" x2="5" y2="0" style="fill: none; stroke: #888; stroke-width: 1; opacity: 1;"></line><line transform="translate(0,0)" x2="5" y2="0" style="fill: none; stroke: #888; stroke-width: 1; opacity: 1;"></line></g><g class="mark-text role-axis-label" style="pointer-events: none;"><text text-anchor="start" transform="translate(7,203)" style="font: 10px sans-serif; fill: #000; opacity: 1;">0</text><text text-anchor="start" transform="translate(7,163)" style="font: 10px sans-serif; fill: #000; opacity: 1;">20</text><text text-anchor="start" transform="translate(7,123)" style="font: 10px sans-serif; fill: #000; opacity: 1;">40</text><text text-anchor="start" transform="translate(7,83)" style="font: 10px sans-serif; fill: #000; opacity: 1;">60</text><text text-anchor="start" transform="translate(7,43)" style="font: 10px sans-serif; fill: #000; opacity: 1;">80</text><text text-anchor="start" transform="translate(7,3)" style="font: 10px sans-serif; fill: #000; opacity: 1;">100</text></g><g class="mark-rule role-axis-domain" style="pointer-events: none;"><line transform="translate(0,200)" x2="0" y2="-200" style="fill: none; stroke: #888; stroke-width: 1; opacity: 1;"></line></g><g class="mark-text role-axis-title" style="pointer-events: none;"><text text-anchor="middle" transform="translate(34,100) rotate(90) translate(0,-2)" style="font: bold 11px sans-serif; fill: #000; opacity: 1;">Number of Notes in Billions</text></g></g></g></g></g></g></g><g class="mark-group role-legend"><g transform="translate(834,0)"><path class="background" d="M0,0h104v42h-104Z" style="pointer-events: none; fill: none;"></path><g><g class="mark-group role-legend-entry"><g transform="translate(0,16)"><path class="background" d="M0,0h0v0h0Z" style="pointer-events: none; fill: none;"></path><g><g class="mark-symbol role-legend-symbol" style="pointer-events: none;"><path transform="translate(5,5)" d="M5,0A5,5,0,1,1,-5,0A5,5,0,1,1,5,0" style="fill: #ff99cc; stroke-width: 1.5; opacity: 1;"></path><path transform="translate(5,20)" d="M5,0A5,5,0,1,1,-5,0A5,5,0,1,1,5,0" style="fill: #66ccff; stroke-width: 1.5; opacity: 1;"></path></g><g class="mark-text role-legend-label" style="pointer-events: none;"><text text-anchor="start" transform="translate(18,8)" style="font: 10px sans-serif; fill: #000; opacity: 1;">Rest Combined</text><text text-anchor="start" transform="translate(18,23)" style="font: 10px sans-serif; fill: #000; opacity: 1;">Rs 1</text></g></g></g></g><g class="mark-text role-legend-title" style="pointer-events: none;"><text text-anchor="start" transform="translate(0,9)" style="font: bold 11px sans-serif; fill: #000; opacity: 1;">Partial Contribution</text></g></g></g></g></g></g></g></g></svg>