<svg class="marks" width="949" height="246" viewBox="0 0 949 246" version="1.1" xmlns="http://www.w3.org/2000/svg" xmlns:xlink="http://www.w3.org/1999/xlink"><g transform="translate(6,12)"><g class="mark-group role-frame root"><g transform="translate(0,0)"><path class="background" d="M0,0h0v200h0Z" style="fill: none;"></path><g><g class="mark-group role-scope concat_0_group"><g transform="translate(0,0)"><path class="background" d="M0.5,0.5h350v200h-350Z" style="fill: transparent; stroke: #ddd;"></path><g><g class="mark-group role-scope concat_0_pathgroup"><g transform="translate(0,0)"><path class="background" d="M0,0h350v200h-350Z" style="fill: none;"></path><g><g class="mark-area role-mark concat_0_marks"><path d="M350,17.568888888888893L340.7954463578068,41.200555555555525L331.5908927156135,57.405111111111125L322.36112111823616,70.55333333333334L313.15656747604294,82.98566666666667L303.95201383384966,95.9827777777778L294.74746019165644,112.3778888888889L285.51768859427915,124.28744444444445L276.3131349520859,135.34466666666668L267.10858130989266,144.8401111111111L257.90402766769944,153.08466666666666L248.67425607032206,159.83044444444442L239.46970242812884,164.43777777777777L230.2651487859356,169.39988888888888L221.06059514374235,172.7818888888889L211.830823546365,176.35922222222223L202.62626990417175,178.6027777777778L193.4217162619785,180.84833333333333L184.21716261978528,183.54822222222222L174.98739102240796,185.03822222222223L165.78283738021472,186.6598888888889L156.57828373802147,188.5971111111111L147.37373009582822,190.68277777777777L138.1439584984509,192.23866666666666L128.93940485625765,192.94877777777776L119.73485121406442,194.29733333333334L110.53029757187117,194.76733333333334L101.30052597449385,195.66344444444445L92.0959723323006,196.20955555555557L82.89141869010736,196.773L73.68686504791411,197.129L64.45709345053679,197.3672222222222L55.25253980834354,197.8047777777778L46.0479861661503,198.05911111111112L36.843432523957055,198.32733333333334L27.613660926579726,198.4512222222222L18.409107284386483,198.6627777777778L9.204553642193241,198.82766666666666L0,199.01566666666668L0,199.88944444444445L9.204553642193241,199.84L18.409107284386483,199.77966666666666L27.613660926579726,199.7548888888889L36.843432523957055,199.69733333333335L46.0479861661503,199.66477777777777L55.25253980834354,199.5971111111111L64.45709345053679,199.56444444444443L73.68686504791411,199.5211111111111L82.89141869010736,199.417L92.0959723323006,199.19255555555554L101.30052597449385,198.949L110.53029757187117,198.6052222222222L119.73485121406442,198.35422222222223L128.93940485625765,198.03122222222223L138.1439584984509,197.49144444444445L147.37373009582822,197.22322222222223L156.57828373802147,196.82922222222223L165.78283738021472,196.48233333333334L174.98739102240796,196.2641111111111L184.21716261978528,196.195L193.4217162619785,196.29822222222222L202.62626990417175,196.30777777777777L211.830823546365,196.35355555555554L221.06059514374235,196.04433333333333L230.2651487859356,196.08988888888888L239.46970242812884,196.33033333333333L248.67425607032206,196.67322222222222L257.90402766769944,196.90644444444445L267.10858130989266,196.89433333333332L276.3131349520859,197.05466666666666L285.51768859427915,197.28444444444443L294.74746019165644,197.66033333333334L303.95201383384966,198.22444444444446L313.15656747604294,198.06244444444445L322.36112111823616,198.07722222222222L331.5908927156135,198.08422222222222L340.7954463578068,198.06266666666667L350,197.8388888888889Z" style="fill: #ff99cc;"></path></g></g></g><g transform="translate(0,0)"><path class="background" d="M0,0h350v200h-350Z" style="fill: none;"></path><g><g class="mark-area role-mark concat_0_marks"><path d="M350,197.8388888888889L340.7954463578068,198.06266666666667L331.5908927156135,198.08422222222222L322.36112111823616,198.07722222222222L313.15656747604294,198.06244444444445L303.95201383384966,198.22444444444446L294.74746019165644,197.66033333333334L285.51768859427915,197.28444444444443L276.3131349520859,197.05466666666666L267.10858130989266,196.89433333333332L257.90402766769944,196.90644444444445L248.67425607032206,196.67322222222222L239.46970242812884,196.33033333333333L230.2651487859356,196.08988888888888L221.06059514374235,196.04433333333333L211.830823546365,196.35355555555554L202.62626990417175,196.30777777777777L193.4217162619785,196.29822222222222L184.21716261978528,196.195L174.98739102240796,196.2641111111111L165.78283738021472,196.48233333333334L156.57828373802147,196.82922222222223L147.37373009582822,197.22322222222223L138.1439584984509,197.49144444444445L128.93940485625765,198.03122222222223L119.73485121406442,198.35422222222223L110.53029757187117,198.6052222222222L101.30052597449385,198.949L92.0959723323006,199.19255555555554L82.89141869010736,199.417L73.68686504791411,199.5211111111111L64.45709345053679,199.56444444444443L55.25253980834354,199.5971111111111L46.0479861661503,199.66477777777777L36.843432523957055,199.69733333333335L27.613660926579726,199.7548888888889L18.409107284386483,199.77966666666666L9.204553642193241,199.84L0,199.88944444444445L0,200L9.204553642193241,200L18.409107284386483,200L27.613660926579726,200L36.843432523957055,200L46.0479861661503,200L55.25253980834354,200L64.45709345053679,200L73.68686504791411,200L82.89141869010736,200L92.0959723323006,200L101.30052597449385,200L110.53029757187117,200L119.73485121406442,200L128.93940485625765,200L138.1439584984509,200L147.37373009582822,200L156.57828373802147,200L165.78283738021472,200L174.98739102240796,200L184.21716261978528,200L193.4217162619785,200L202.62626990417175,200L211.830823546365,200L221.06059514374235,200L230.2651487859356,200L239.46970242812884,200L248.67425607032206,200L257.90402766769944,200L267.10858130989266,200L276.3131349520859,200L285.51768859427915,200L294.74746019165644,200L303.95201383384966,200L313.15656747604294,200L322.36112111823616,200L331.5908927156135,200L340.7954463578068,200L350,200Z" style="fill: #66ccff;"></path></g></g></g></g><g class="mark-group role-axis"><g transform="translate(0.5,200.5)"><path class="background" d="M0,0h0v0h0Z" style="pointer-events: none; fill: none;"></path><g><g class="mark-rule role-axis-tick" style="pointer-events: none;"><line transform="translate(28,0)" x2="0" y2="15" style="fill: none; stroke: #888; stroke-width: 1; opacity: 1;"></line><line transform="translate(74,0)" x2="0" y2="15" style="fill: none; stroke: #888; stroke-width: 1; opacity: 1;"></line><line transform="translate(120,0)" x2="0" y2="15" style="fill: none; stroke: #888; stroke-width: 1; opacity: 1;"></line><line transform="translate(166,0)" x2="0" y2="15" style="fill: none; stroke: #888; stroke-width: 1; opacity: 1;"></line><line transform="translate(212,0)" x2="0" y2="15" style="fill: none; stroke: #888; stroke-width: 1; opacity: 1;"></line><line transform="translate(258,0)" x2="0" y2="15" style="fill: none; stroke: #888; stroke-width: 1; opacity: 1;"></line><line transform="translate(304,0)" x2="0" y2="15" style="fill: none; stroke: #888; stroke-width: 1; opacity: 1;"></line><line transform="translate(350,0)" x2="0" y2="15" style="fill: none; stroke: #888; stroke-width: 1; opacity: 1;"></line></g><g class="mark-text role-axis-label" style="pointer-events: none;"><text text-anchor="middle" transform="translate(27.613660926579726,25)" style="font: 10px sans-serif; fill: #000; opacity: 1;">1980</text><text text-anchor="middle" transform="translate(73.68686504791411,25)" style="font: 10px sans-serif; fill: #000; opacity: 1;">1985</text><text text-anchor="middle" transform="translate(119.73485121406442,25)" style="font: 10px sans-serif; fill: #000; opacity: 1;">1990</text><text text-anchor="middle" transform="translate(165.78283738021472,25)" style="font: 10px sans-serif; fill: #000; opacity: 1;">1995</text><text text-anchor="middle" transform="translate(211.830823546365,25)" style="font: 10px sans-serif; fill: #000; opacity: 1;">2000</text><text text-anchor="middle" transform="translate(257.90402766769944,25)" style="font: 10px sans-serif; fill: #000; opacity: 1;">2005</text><text text-anchor="middle" transform="translate(303.95201383384966,25)" style="font: 10px sans-serif; fill: #000; opacity: 1;">2010</text><text text-anchor="end" transform="translate(350,25)" style="font: 10px sans-serif; fill: #000; opacity: 1;">2015</text></g><g class="mark-rule role-axis-domain" style="pointer-events: none;"><line transform="translate(0,0)" x2="350" y2="0" style="fill: none; stroke: #888; stroke-width: 1; opacity: 1;"></line></g></g></g></g><g class="mark-group role-axis"><g transform="translate(350.5,0.5)"><path class="background" d="M0,0h0v0h0Z" style="pointer-events: none; fill: none;"></path><g><g class="mark-rule role-axis-tick" style="pointer-events: none;"><line transform="translate(0,200)" x2="5" y2="0" style="fill: none; stroke: #888; stroke-width: 1; opacity: 1;"></line><line transform="translate(0,144)" x2="5" y2="0" style="fill: none; stroke: #888; stroke-width: 1; opacity: 1;"></line><line transform="translate(0,89)" x2="5" y2="0" style="fill: none; stroke: #888; stroke-width: 1; opacity: 1;"></line><line transform="translate(0,33)" x2="5" y2="0" style="fill: none; stroke: #888; stroke-width: 1; opacity: 1;"></line></g><g class="mark-text role-axis-label" style="pointer-events: none;"><text text-anchor="start" transform="translate(7,203)" style="font: 10px sans-serif; fill: #000; opacity: 1;">0</text><text text-anchor="start" transform="translate(7,147.44444444444446)" style="font: 10px sans-serif; fill: #000; opacity: 1;">5,000</text><text text-anchor="start" transform="translate(7,91.88888888888889)" style="font: 10px sans-serif; fill: #000; opacity: 1;">10,000</text><text text-anchor="start" transform="translate(7,36.333333333333314)" style="font: 10px sans-serif; fill: #000; opacity: 1;">15,000</text></g><g class="mark-rule role-axis-domain" style="pointer-events: none;"><line transform="translate(0,200)" x2="0" y2="-200" style="fill: none; stroke: #888; stroke-width: 1; opacity: 1;"></line></g><g class="mark-text role-axis-title" style="pointer-events: none;"><text text-anchor="middle" transform="translate(42.5859375,100) rotate(90) translate(0,-2)" style="font: bold 11px sans-serif; fill: #000; opacity: 1;">Sum of Money in Billions</text></g></g></g></g></g></g></g><g class="mark-group role-scope concat_1_group"><g transform="translate(418,0)"><path class="background" d="M0.5,0.5h350v200h-350Z" style="fill: transparent; stroke: #ddd;"></path><g><g class="mark-group role-scope concat_1_pathgroup"><g transform="translate(0,0)"><path class="background" d="M0,0h350v200h-350Z" style="fill: none;"></path><g><g class="mark-area role-mark concat_1_marks"><path d="M350,13.288000000000011L340.7954463578068,26.858000000000033L331.5908927156135,39.392000000000024L322.36112111823616,46.976L313.15656747604294,55.25L303.95201383384966,64.868L294.74746019165644,80.91599999999998L285.51768859427915,96.07200000000003L276.3131349520859,105.554L267.10858130989266,114.316L257.90402766769944,118.322L248.67425607032206,120.05600000000001L239.46970242812884,117.346L230.2651487859356,119.28800000000001L221.06059514374235,117.162L211.830823546365,122.45400000000001L202.62626990417175,123.79L193.4217162619785,125.58L184.21716261978528,127.75999999999999L174.98739102240796,132.42399999999998L165.78283738021472,138.13400000000001L156.57828373802147,144.132L147.37373009582822,149.458L138.1439584984509,151.344L128.93940485625765,147.516L119.73485121406442,155.78199999999998L110.53029757187117,158.086L101.30052597449385,163.422L92.0959723323006,166.002L82.89141869010736,169.562L73.68686504791411,171.94400000000002L64.45709345053679,174.766L55.25253980834354,180.508L46.0479861661503,180.172L36.843432523957055,181.22L27.613660926579726,182.686L18.409107284386483,184.028L9.204553642193241,184.492L0,185.192L0,199.602L9.204553642193241,199.424L18.409107284386483,199.206L27.613660926579726,199.118L36.843432523957055,198.91L46.0479861661503,198.794L55.25253980834354,198.55L64.45709345053679,198.432L73.68686504791411,198.276L82.89141869010736,197.902L92.0959723323006,197.094L101.30052597449385,196.216L110.53029757187117,194.978L119.73485121406442,194.076L128.93940485625765,192.912L138.1439584984509,190.97L147.37373009582822,190.004L156.57828373802147,188.586L165.78283738021472,187.336L174.98739102240796,186.55L184.21716261978528,186.302L193.4217162619785,186.674L202.62626990417175,186.708L211.830823546365,186.872L221.06059514374235,185.76L230.2651487859356,185.924L239.46970242812884,186.79L248.67425607032206,188.024L257.90402766769944,188.864L267.10858130989266,188.82L276.3131349520859,189.39600000000002L285.51768859427915,190.224L294.74746019165644,191.578L303.95201383384966,193.608L313.15656747604294,193.024L322.36112111823616,193.078L331.5908927156135,193.104L340.7954463578068,193.026L350,192.22Z" style="fill: #ff99cc;"></path></g></g></g><g transform="translate(0,0)"><path class="background" d="M0,0h350v200h-350Z" style="fill: none;"></path><g><g class="mark-area role-mark concat_1_marks"><path d="M350,192.22L340.7954463578068,193.026L331.5908927156135,193.104L322.36112111823616,193.078L313.15656747604294,193.024L303.95201383384966,193.608L294.74746019165644,191.578L285.51768859427915,190.224L276.3131349520859,189.39600000000002L267.10858130989266,188.82L257.90402766769944,188.864L248.67425607032206,188.024L239.46970242812884,186.79L230.2651487859356,185.924L221.06059514374235,185.76L211.830823546365,186.872L202.62626990417175,186.708L193.4217162619785,186.674L184.21716261978528,186.302L174.98739102240796,186.55L165.78283738021472,187.336L156.57828373802147,188.586L147.37373009582822,190.004L138.1439584984509,190.97L128.93940485625765,192.912L119.73485121406442,194.076L110.53029757187117,194.978L101.30052597449385,196.216L92.0959723323006,197.094L82.89141869010736,197.902L73.68686504791411,198.276L64.45709345053679,198.432L55.25253980834354,198.55L46.0479861661503,198.794L36.843432523957055,198.91L27.613660926579726,199.118L18.409107284386483,199.206L9.204553642193241,199.424L0,199.602L0,200L9.204553642193241,200L18.409107284386483,200L27.613660926579726,200L36.843432523957055,200L46.0479861661503,200L55.25253980834354,200L64.45709345053679,200L73.68686504791411,200L82.89141869010736,200L92.0959723323006,200L101.30052597449385,200L110.53029757187117,200L119.73485121406442,200L128.93940485625765,200L138.1439584984509,200L147.37373009582822,200L156.57828373802147,200L165.78283738021472,200L174.98739102240796,200L184.21716261978528,200L193.4217162619785,200L202.62626990417175,200L211.830823546365,200L221.06059514374235,200L230.2651487859356,200L239.46970242812884,200L248.67425607032206,200L257.90402766769944,200L267.10858130989266,200L276.3131349520859,200L285.51768859427915,200L294.74746019165644,200L303.95201383384966,200L313.15656747604294,200L322.36112111823616,200L331.5908927156135,200L340.7954463578068,200L350,200Z" style="fill: #66ccff;"></path></g></g></g></g><g class="mark-group role-axis"><g transform="translate(0.5,200.5)"><path class="background" d="M0,0h0v0h0Z" style="pointer-events: none; fill: none;"></path><g><g class="mark-rule role-axis-tick" style="pointer-events: none;"><line transform="translate(28,0)" x2="0" y2="15" style="fill: none; stroke: #888; stroke-width: 1; opacity: 1;"></line><line transform="translate(74,0)" x2="0" y2="15" style="fill: none; stroke: #888; stroke-width: 1; opacity: 1;"></line><line transform="translate(120,0)" x2="0" y2="15" style="fill: none; stroke: #888; stroke-width: 1; opacity: 1;"></line><line transform="translate(166,0)" x2="0" y2="15" style="fill: none; stroke: #888; stroke-width: 1; opacity: 1;"></line><line transform="translate(212,0)" x2="0" y2="15" style="fill: none; stroke: #888; stroke-width: 1; opacity: 1;"></line><line transform="translate(258,0)" x2="0" y2="15" style="fill: none; stroke: #888; stroke-width: 1; opacity: 1;"></line><line transform="translate(304,0)" x2="0" y2="15" style="fill: none; stroke: #888; stroke-width: 1; opacity: 1;"></line><line transform="translate(350,0)" x2="0" y2="15" style="fill: none; stroke: #888; stroke-width: 1; opacity: 1;"></line></g><g class="mark-text role-axis-label" style="pointer-events: none;"><text text-anchor="middle" transform="translate(27.613660926579726,25)" style="font: 10px sans-serif; fill: #000; opacity: 1;">1980</text><text text-anchor="middle" transform="translate(73.68686504791411,25)" style="font: 10px sans-serif; fill: #000; opacity: 1;">1985</text><text text-anchor="middle" transform="translate(119.73485121406442,25)" style="font: 10px sans-serif; fill: #000; opacity: 1;">1990</text><text text-anchor="middle" transform="translate(165.78283738021472,25)" style="font: 10px sans-serif; fill: #000; opacity: 1;">1995</text><text text-anchor="middle" transform="translate(211.830823546365,25)" style="font: 10px sans-serif; fill: #000; opacity: 1;">2000</text><text text-anchor="middle" transform="translate(257.90402766769944,25)" style="font: 10px sans-serif; fill: #000; opacity: 1;">2005</text><text text-anchor="middle" transform="translate(303.95201383384966,25)" style="font: 10px sans-serif; fill: #000; opacity: 1;">2010</text><text text-anchor="end" transform="translate(350,25)" style="font: 10px sans-serif; fill: #000; opacity: 1;">2015</text></g><g class="mark-rule role-axis-domain" style="pointer-events: none;"><line transform="translate(0,0)" x2="350" y2="0" style="fill: none; stroke: #888; stroke-width: 1; opacity: 1;"></line></g></g></g></g><g class="mark-group role-axis"><g transform="translate(350.5,0.5)"><path class="background" d="M0,0h0v0h0Z" style="pointer-events: none; fill: none;"></path><g><g class="mark-rule role-axis-tick" style="pointer-events: none;"><line transform="translate(0,200)" x2="5" y2="0" style="fill: none; stroke: #888; stroke-width: 1; opacity: 1;"></line><line transform="translate(0,160)" x2="5" y2="0" style="fill: none; stroke: #888; stroke-width: 1; opacity: 1;"></line><line transform="translate(0,120)" x2="5" y2="0" style="fill: none; stroke: #888; stroke-width: 1; opacity: 1;"></line><line transform="translate(0,80)" x2="5" y2="0" style="fill: none; stroke: #888; stroke-width: 1; opacity: 1;"></line><line transform="translate(0,40)" x2="5" y2="0" style="fill: none; stroke: #888; stroke-width: 1; opacity: 1;"></line><line transform="translate(0,0)" x2="5" y2="0" style="fill: none; stroke: #888; stroke-width: 1; opacity: 1;"></line></g><g class="mark-text role-axis-label" style="pointer-events: none;"><text text-anchor="start" transform="translate(7,203)" style="font: 10px sans-serif; fill: #000; opacity: 1;">0</text><text text-anchor="start" transform="translate(7,163)" style="font: 10px sans-serif; fill: #000; opacity: 1;">20</text><text text-anchor="start" transform="translate(7,123)" style="font: 10px sans-serif; fill: #000; opacity: 1;">40</text><text text-anchor="start" transform="translate(7,83)" style="font: 10px sans-serif; fill: #000; opacity: 1;">60</text><text text-anchor="start" transform="translate(7,43)" style="font: 10px sans-serif; fill: #000; opacity: 1;">80</text><text text-anchor="start" transform="translate(7,3)" style="font: 10px sans-serif; fill: #000; opacity: 1;">100</text></g><g class="mark-rule role-axis-domain" style="pointer-events: none;"><line transform="translate(0,200)" x2="0" y2="-200" style="fill: none; stroke: #888; stroke-width: 1; opacity: 1;"></line></g><g class="mark-text role-axis-title" style="pointer-events: none;"><text text-anchor="middle" transform="translate(34,100) rotate(90) translate(0,-2)" style="font: bold 11px sans-serif; fill: #000; opacity: 1;">Number of Notes in Billions</text></g></g></g></g></g></g></g><g class="mark-group role-legend"><g transform="translate(834,0)"><path class="background" d="M0,0h104v42h-104Z" style="pointer-events: none; fill: none;"></path><g><g class="mark-group role-legend-entry"><g transform="translate(0,16)"><path class="background" d="M0,0h0v0h0Z" style="pointer-events: none; fill: none;"></path><g><g class="mark-symbol role-legend-symbol" style="pointer-events: none;"><path transform="translate(5,5)" d="M5,0A5,5,0,1,1,-5,0A5,5,0,1,1,5,0" style="fill: #ff99cc; stroke-width: 1.5; opacity: 1;"></path><path transform="translate(5,20)" d="M5,0A5,5,0,1,1,-5,0A5,5,0,1,1,5,0" style="fill: #66ccff; stroke-width: 1.5; opacity: 1;"></path></g><g class="mark-text role-legend-label" style="pointer-events: none;"><text text-anchor="start" transform="translate(18,8)" style="font: 10px sans-serif; fill: #000; opacity: 1;">Rest Combined</text><text text-anchor="start" transform="translate(18,23)" style="font: 10px sans-serif; fill: #000; opacity: 1;">Rs 50</text></g></g></g></g><g class="mark-text role-legend-title" style="pointer-events: none;"><text text-anchor="start" transform="translate(0,9)" style="font: bold 11px sans-serif; fill: #000; opacity: 1;">Partial Contribution</text></g></g></g></g></g></g></g></g></svg>