<svg class="marks" width="949" height="246" viewBox="0 0 949 246" version="1.1" xmlns="http://www.w3.org/2000/svg" xmlns:xlink="http://www.w3.org/1999/xlink"><g transform="translate(6,12)"><g class="mark-group role-frame root"><g transform="translate(0,0)"><path class="background" d="M0,0h0v200h0Z" style="fill: none;"></path><g><g class="mark-group role-scope concat_0_group"><g transform="translate(0,0)"><path class="background" d="M0.5,0.5h350v200h-350Z" style="fill: transparent; stroke: #ddd;"></path><g><g class="mark-group role-scope concat_0_pathgroup"><g transform="translate(0,0)"><path class="background" d="M0,0h350v200h-350Z" style="fill: none;"></path><g><g class="mark-area role-mark concat_0_marks"><path d="M350,17.568888888888893L340.7954463578068,41.20055555555555L331.5908927156135,57.4051111111111L322.36112111823616,70.55333333333334L313.15656747604294,82.98566666666665L303.95201383384966,95.9827777777778L294.74746019165644,112.37788888888888L285.51768859427915,124.28744444444445L276.3131349520859,135.34466666666668L267.10858130989266,144.8401111111111L257.90402766769944,153.08466666666666L248.67425607032206,159.83044444444442L239.46970242812884,164.43777777777777L230.2651487859356,169.39988888888888L221.06059514374235,172.7818888888889L211.830823546365,176.35922222222223L202.62626990417175,178.6027777777778L193.4217162619785,180.84833333333333L184.21716261978528,183.54822222222222L174.98739102240796,185.03822222222223L165.78283738021472,186.6598888888889L156.57828373802147,188.5971111111111L147.37373009582822,190.68277777777777L138.1439584984509,192.23866666666666L128.93940485625765,192.94877777777776L119.73485121406442,194.29733333333334L110.53029757187117,194.76733333333334L101.30052597449385,195.66344444444445L92.0959723323006,196.20955555555557L82.89141869010736,196.773L73.68686504791411,197.129L64.45709345053679,197.3672222222222L55.25253980834354,197.8047777777778L46.0479861661503,198.05911111111112L36.843432523957055,198.32733333333334L27.613660926579726,198.4512222222222L18.409107284386483,198.6627777777778L9.204553642193241,198.82766666666666L0,199.01566666666668L0,199.522L9.204553642193241,199.40344444444443L18.409107284386483,199.33877777777778L27.613660926579726,199.17711111111112L36.843432523957055,199.13011111111112L46.0479861661503,198.91366666666667L55.25253980834354,198.70111111111112L64.45709345053679,198.4551111111111L73.68686504791411,198.33133333333333L82.89141869010736,198.09822222222223L92.0959723323006,197.88033333333334L101.30052597449385,197.64355555555557L110.53029757187117,197.358L119.73485121406442,197.27L128.93940485625765,196.4148888888889L138.1439584984509,196.3707777777778L147.37373009582822,195.80177777777777L156.57828373802147,194.83811111111112L165.78283738021472,193.87722222222223L174.98739102240796,193.04444444444445L184.21716261978528,192.20455555555554L193.4217162619785,191.31144444444445L202.62626990417175,190.4632222222222L211.830823546365,187.98433333333332L221.06059514374235,186.88433333333333L230.2651487859356,187.17933333333335L239.46970242812884,186.50644444444444L248.67425607032206,186.302L257.90402766769944,185.04033333333334L267.10858130989266,184.95066666666668L276.3131349520859,185.04722222222222L285.51768859427915,184.77466666666666L294.74746019165644,184.62622222222222L303.95201383384966,184.41744444444444L313.15656747604294,184.31244444444445L322.36112111823616,183.97666666666666L331.5908927156135,183.59488888888887L340.7954463578068,183.30388888888888L350,182.46855555555555Z" style="fill: #ff99cc;"></path></g></g></g><g transform="translate(0,0)"><path class="background" d="M0,0h350v200h-350Z" style="fill: none;"></path><g><g class="mark-area role-mark concat_0_marks"><path d="M350,182.46855555555555L340.7954463578068,183.30388888888888L331.5908927156135,183.59488888888887L322.36112111823616,183.97666666666666L313.15656747604294,184.31244444444445L303.95201383384966,184.41744444444444L294.74746019165644,184.62622222222222L285.51768859427915,184.77466666666666L276.3131349520859,185.04722222222222L267.10858130989266,184.95066666666668L257.90402766769944,185.04033333333334L248.67425607032206,186.302L239.46970242812884,186.50644444444444L230.2651487859356,187.17933333333335L221.06059514374235,186.88433333333333L211.830823546365,187.98433333333332L202.62626990417175,190.4632222222222L193.4217162619785,191.31144444444445L184.21716261978528,192.20455555555554L174.98739102240796,193.04444444444445L165.78283738021472,193.87722222222223L156.57828373802147,194.83811111111112L147.37373009582822,195.80177777777777L138.1439584984509,196.3707777777778L128.93940485625765,196.4148888888889L119.73485121406442,197.27L110.53029757187117,197.358L101.30052597449385,197.64355555555557L92.0959723323006,197.88033333333334L82.89141869010736,198.09822222222223L73.68686504791411,198.33133333333333L64.45709345053679,198.4551111111111L55.25253980834354,198.70111111111112L46.0479861661503,198.91366666666667L36.843432523957055,199.13011111111112L27.613660926579726,199.17711111111112L18.409107284386483,199.33877777777778L9.204553642193241,199.40344444444443L0,199.522L0,200L9.204553642193241,200L18.409107284386483,200L27.613660926579726,200L36.843432523957055,200L46.0479861661503,200L55.25253980834354,200L64.45709345053679,200L73.68686504791411,200L82.89141869010736,200L92.0959723323006,200L101.30052597449385,200L110.53029757187117,200L119.73485121406442,200L128.93940485625765,200L138.1439584984509,200L147.37373009582822,200L156.57828373802147,200L165.78283738021472,200L174.98739102240796,200L184.21716261978528,200L193.4217162619785,200L202.62626990417175,200L211.830823546365,200L221.06059514374235,200L230.2651487859356,200L239.46970242812884,200L248.67425607032206,200L257.90402766769944,200L267.10858130989266,200L276.3131349520859,200L285.51768859427915,200L294.74746019165644,200L303.95201383384966,200L313.15656747604294,200L322.36112111823616,200L331.5908927156135,200L340.7954463578068,200L350,200Z" style="fill: #66ccff;"></path></g></g></g></g><g class="mark-group role-axis"><g transform="translate(0.5,200.5)"><path class="background" d="M0,0h0v0h0Z" style="pointer-events: none; fill: none;"></path><g><g class="mark-rule role-axis-tick" style="pointer-events: none;"><line transform="translate(28,0)" x2="0" y2="15" style="fill: none; stroke: #888; stroke-width: 1; opacity: 1;"></line><line transform="translate(74,0)" x2="0" y2="15" style="fill: none; stroke: #888; stroke-width: 1; opacity: 1;"></line><line transform="translate(120,0)" x2="0" y2="15" style="fill: none; stroke: #888; stroke-width: 1; opacity: 1;"></line><line transform="translate(166,0)" x2="0" y2="15" style="fill: none; stroke: #888; stroke-width: 1; opacity: 1;"></line><line transform="translate(212,0)" x2="0" y2="15" style="fill: none; stroke: #888; stroke-width: 1; opacity: 1;"></line><line transform="translate(258,0)" x2="0" y2="15" style="fill: none; stroke: #888; stroke-width: 1; opacity: 1;"></line><line transform="translate(304,0)" x2="0" y2="15" style="fill: none; stroke: #888; stroke-width: 1; opacity: 1;"></line><line transform="translate(350,0)" x2="0" y2="15" style="fill: none; stroke: #888; stroke-width: 1; opacity: 1;"></line></g><g class="mark-text role-axis-label" style="pointer-events: none;"><text text-anchor="middle" transform="translate(27.613660926579726,25)" style="font: 10px sans-serif; fill: #000; opacity: 1;">1980</text><text text-anchor="middle" transform="translate(73.68686504791411,25)" style="font: 10px sans-serif; fill: #000; opacity: 1;">1985</text><text text-anchor="middle" transform="translate(119.73485121406442,25)" style="font: 10px sans-serif; fill: #000; opacity: 1;">1990</text><text text-anchor="middle" transform="translate(165.78283738021472,25)" style="font: 10px sans-serif; fill: #000; opacity: 1;">1995</text><text text-anchor="middle" transform="translate(211.830823546365,25)" style="font: 10px sans-serif; fill: #000; opacity: 1;">2000</text><text text-anchor="middle" transform="translate(257.90402766769944,25)" style="font: 10px sans-serif; fill: #000; opacity: 1;">2005</text><text text-anchor="middle" transform="translate(303.95201383384966,25)" style="font: 10px sans-serif; fill: #000; opacity: 1;">2010</text><text text-anchor="end" transform="translate(350,25)" style="font: 10px sans-serif; fill: #000; opacity: 1;">2015</text></g><g class="mark-rule role-axis-domain" style="pointer-events: none;"><line transform="translate(0,0)" x2="350" y2="0" style="fill: none; stroke: #888; stroke-width: 1; opacity: 1;"></line></g></g></g></g><g class="mark-group role-axis"><g transform="translate(350.5,0.5)"><path class="background" d="M0,0h0v0h0Z" style="pointer-events: none; fill: none;"></path><g><g class="mark-rule role-axis-tick" style="pointer-events: none;"><line transform="translate(0,200)" x2="5" y2="0" style="fill: none; stroke: #888; stroke-width: 1; opacity: 1;"></line><line transform="translate(0,144)" x2="5" y2="0" style="fill: none; stroke: #888; stroke-width: 1; opacity: 1;"></line><line transform="translate(0,89)" x2="5" y2="0" style="fill: none; stroke: #888; stroke-width: 1; opacity: 1;"></line><line transform="translate(0,33)" x2="5" y2="0" style="fill: none; stroke: #888; stroke-width: 1; opacity: 1;"></line></g><g class="mark-text role-axis-label" style="pointer-events: none;"><text text-anchor="start" transform="translate(7,203)" style="font: 10px sans-serif; fill: #000; opacity: 1;">0</text><text text-anchor="start" transform="translate(7,147.44444444444446)" style="font: 10px sans-serif; fill: #000; opacity: 1;">5,000</text><text text-anchor="start" transform="translate(7,91.88888888888889)" style="font: 10px sans-serif; fill: #000; opacity: 1;">10,000</text><text text-anchor="start" transform="translate(7,36.333333333333314)" style="font: 10px sans-serif; fill: #000; opacity: 1;">15,000</text></g><g class="mark-rule role-axis-domain" style="pointer-events: none;"><line transform="translate(0,200)" x2="0" y2="-200" style="fill: none; stroke: #888; stroke-width: 1; opacity: 1;"></line></g><g class="mark-text role-axis-title" style="pointer-events: none;"><text text-anchor="middle" transform="translate(42.5859375,100) rotate(90) translate(0,-2)" style="font: bold 11px sans-serif; fill: #000; opacity: 1;">Sum of Money in Billions</text></g></g></g></g></g></g></g><g class="mark-group role-scope concat_1_group"><g transform="translate(418,0)"><path class="background" d="M0.5,0.5h350v200h-350Z" style="fill: transparent; stroke: #ddd;"></path><g><g class="mark-group role-scope concat_1_pathgroup"><g transform="translate(0,0)"><path class="background" d="M0,0h350v200h-350Z" style="fill: none;"></path><g><g class="mark-area role-mark concat_1_marks"><path d="M350,13.288000000000011L340.7954463578068,26.858000000000033L331.5908927156135,39.392000000000024L322.36112111823616,46.976L313.15656747604294,55.25L303.95201383384966,64.868L294.74746019165644,80.91599999999998L285.51768859427915,96.072L276.3131349520859,105.554L267.10858130989266,114.316L257.90402766769944,118.322L248.67425607032206,120.05600000000001L239.46970242812884,117.346L230.2651487859356,119.288L221.06059514374235,117.16199999999999L211.830823546365,122.45400000000001L202.62626990417175,123.79L193.4217162619785,125.58L184.21716261978528,127.76L174.98739102240796,132.424L165.78283738021472,138.13400000000001L156.57828373802147,144.132L147.37373009582822,149.458L138.1439584984509,151.344L128.93940485625765,147.51600000000002L119.73485121406442,155.78199999999998L110.53029757187117,158.086L101.30052597449385,163.422L92.0959723323006,166.002L82.89141869010736,169.562L73.68686504791411,171.94400000000002L64.45709345053679,174.766L55.25253980834354,180.508L46.0479861661503,180.172L36.843432523957055,181.22L27.613660926579726,182.686L18.409107284386483,184.028L9.204553642193241,184.492L0,185.192L0,199.14L9.204553642193241,198.926L18.409107284386483,198.81L27.613660926579726,198.518L36.843432523957055,198.434L46.0479861661503,198.044L55.25253980834354,197.662L64.45709345053679,197.22L73.68686504791411,196.996L82.89141869010736,196.576L92.0959723323006,196.184L101.30052597449385,195.758L110.53029757187117,195.244L119.73485121406442,195.086L128.93940485625765,193.546L138.1439584984509,193.468L147.37373009582822,192.444L156.57828373802147,190.708L165.78283738021472,188.98L174.98739102240796,187.48L184.21716261978528,185.968L193.4217162619785,184.36L202.62626990417175,182.834L211.830823546365,178.372L221.06059514374235,176.392L230.2651487859356,176.922L239.46970242812884,175.712L248.67425607032206,175.344L257.90402766769944,173.072L267.10858130989266,172.912L276.3131349520859,173.084L285.51768859427915,172.594L294.74746019165644,172.328L303.95201383384966,171.952L313.15656747604294,171.762L322.36112111823616,171.158L331.5908927156135,170.47L340.7954463578068,169.948L350,168.444Z" style="fill: #ff99cc;"></path></g></g></g><g transform="translate(0,0)"><path class="background" d="M0,0h350v200h-350Z" style="fill: none;"></path><g><g class="mark-area role-mark concat_1_marks"><path d="M350,168.444L340.7954463578068,169.948L331.5908927156135,170.47L322.36112111823616,171.158L313.15656747604294,171.762L303.95201383384966,171.952L294.74746019165644,172.328L285.51768859427915,172.594L276.3131349520859,173.084L267.10858130989266,172.912L257.90402766769944,173.072L248.67425607032206,175.344L239.46970242812884,175.712L230.2651487859356,176.922L221.06059514374235,176.392L211.830823546365,178.372L202.62626990417175,182.834L193.4217162619785,184.36L184.21716261978528,185.968L174.98739102240796,187.48L165.78283738021472,188.98L156.57828373802147,190.708L147.37373009582822,192.444L138.1439584984509,193.468L128.93940485625765,193.546L119.73485121406442,195.086L110.53029757187117,195.244L101.30052597449385,195.758L92.0959723323006,196.184L82.89141869010736,196.576L73.68686504791411,196.996L64.45709345053679,197.22L55.25253980834354,197.662L46.0479861661503,198.044L36.843432523957055,198.434L27.613660926579726,198.518L18.409107284386483,198.81L9.204553642193241,198.926L0,199.14L0,200L9.204553642193241,200L18.409107284386483,200L27.613660926579726,200L36.843432523957055,200L46.0479861661503,200L55.25253980834354,200L64.45709345053679,200L73.68686504791411,200L82.89141869010736,200L92.0959723323006,200L101.30052597449385,200L110.53029757187117,200L119.73485121406442,200L128.93940485625765,200L138.1439584984509,200L147.37373009582822,200L156.57828373802147,200L165.78283738021472,200L174.98739102240796,200L184.21716261978528,200L193.4217162619785,200L202.62626990417175,200L211.830823546365,200L221.06059514374235,200L230.2651487859356,200L239.46970242812884,200L248.67425607032206,200L257.90402766769944,200L267.10858130989266,200L276.3131349520859,200L285.51768859427915,200L294.74746019165644,200L303.95201383384966,200L313.15656747604294,200L322.36112111823616,200L331.5908927156135,200L340.7954463578068,200L350,200Z" style="fill: #66ccff;"></path></g></g></g></g><g class="mark-group role-axis"><g transform="translate(0.5,200.5)"><path class="background" d="M0,0h0v0h0Z" style="pointer-events: none; fill: none;"></path><g><g class="mark-rule role-axis-tick" style="pointer-events: none;"><line transform="translate(28,0)" x2="0" y2="15" style="fill: none; stroke: #888; stroke-width: 1; opacity: 1;"></line><line transform="translate(74,0)" x2="0" y2="15" style="fill: none; stroke: #888; stroke-width: 1; opacity: 1;"></line><line transform="translate(120,0)" x2="0" y2="15" style="fill: none; stroke: #888; stroke-width: 1; opacity: 1;"></line><line transform="translate(166,0)" x2="0" y2="15" style="fill: none; stroke: #888; stroke-width: 1; opacity: 1;"></line><line transform="translate(212,0)" x2="0" y2="15" style="fill: none; stroke: #888; stroke-width: 1; opacity: 1;"></line><line transform="translate(258,0)" x2="0" y2="15" style="fill: none; stroke: #888; stroke-width: 1; opacity: 1;"></line><line transform="translate(304,0)" x2="0" y2="15" style="fill: none; stroke: #888; stroke-width: 1; opacity: 1;"></line><line transform="translate(350,0)" x2="0" y2="15" style="fill: none; stroke: #888; stroke-width: 1; opacity: 1;"></line></g><g class="mark-text role-axis-label" style="pointer-events: none;"><text text-anchor="middle" transform="translate(27.613660926579726,25)" style="font: 10px sans-serif; fill: #000; opacity: 1;">1980</text><text text-anchor="middle" transform="translate(73.68686504791411,25)" style="font: 10px sans-serif; fill: #000; opacity: 1;">1985</text><text text-anchor="middle" transform="translate(119.73485121406442,25)" style="font: 10px sans-serif; fill: #000; opacity: 1;">1990</text><text text-anchor="middle" transform="translate(165.78283738021472,25)" style="font: 10px sans-serif; fill: #000; opacity: 1;">1995</text><text text-anchor="middle" transform="translate(211.830823546365,25)" style="font: 10px sans-serif; fill: #000; opacity: 1;">2000</text><text text-anchor="middle" transform="translate(257.90402766769944,25)" style="font: 10px sans-serif; fill: #000; opacity: 1;">2005</text><text text-anchor="middle" transform="translate(303.95201383384966,25)" style="font: 10px sans-serif; fill: #000; opacity: 1;">2010</text><text text-anchor="end" transform="translate(350,25)" style="font: 10px sans-serif; fill: #000; opacity: 1;">2015</text></g><g class="mark-rule role-axis-domain" style="pointer-events: none;"><line transform="translate(0,0)" x2="350" y2="0" style="fill: none; stroke: #888; stroke-width: 1; opacity: 1;"></line></g></g></g></g><g class="mark-group role-axis"><g transform="translate(350.5,0.5)"><path class="background" d="M0,0h0v0h0Z" style="pointer-events: none; fill: none;"></path><g><g class="mark-rule role-axis-tick" style="pointer-events: none;"><line transform="translate(0,200)" x2="5" y2="0" style="fill: none; stroke: #888; stroke-width: 1; opacity: 1;"></line><line transform="translate(0,160)" x2="5" y2="0" style="fill: none; stroke: #888; stroke-width: 1; opacity: 1;"></line><line transform="translate(0,120)" x2="5" y2="0" style="fill: none; stroke: #888; stroke-width: 1; opacity: 1;"></line><line transform="translate(0,80)" x2="5" y2="0" style="fill: none; stroke: #888; stroke-width: 1; opacity: 1;"></line><line transform="translate(0,40)" x2="5" y2="0" style="fill: none; stroke: #888; stroke-width: 1; opacity: 1;"></line><line transform="translate(0,0)" x2="5" y2="0" style="fill: none; stroke: #888; stroke-width: 1; opacity: 1;"></line></g><g class="mark-text role-axis-label" style="pointer-events: none;"><text text-anchor="start" transform="translate(7,203)" style="font: 10px sans-serif; fill: #000; opacity: 1;">0</text><text text-anchor="start" transform="translate(7,163)" style="font: 10px sans-serif; fill: #000; opacity: 1;">20</text><text text-anchor="start" transform="translate(7,123)" style="font: 10px sans-serif; fill: #000; opacity: 1;">40</text><text text-anchor="start" transform="translate(7,83)" style="font: 10px sans-serif; fill: #000; opacity: 1;">60</text><text text-anchor="start" transform="translate(7,43)" style="font: 10px sans-serif; fill: #000; opacity: 1;">80</text><text text-anchor="start" transform="translate(7,3)" style="font: 10px sans-serif; fill: #000; opacity: 1;">100</text></g><g class="mark-rule role-axis-domain" style="pointer-events: none;"><line transform="translate(0,200)" x2="0" y2="-200" style="fill: none; stroke: #888; stroke-width: 1; opacity: 1;"></line></g><g class="mark-text role-axis-title" style="pointer-events: none;"><text text-anchor="middle" transform="translate(34,100) rotate(90) translate(0,-2)" style="font: bold 11px sans-serif; fill: #000; opacity: 1;">Number of Notes in Billions</text></g></g></g></g></g></g></g><g class="mark-group role-legend"><g transform="translate(834,0)"><path class="background" d="M0,0h104v42h-104Z" style="pointer-events: none; fill: none;"></path><g><g class="mark-group role-legend-entry"><g transform="translate(0,16)"><path class="background" d="M0,0h0v0h0Z" style="pointer-events: none; fill: none;"></path><g><g class="mark-symbol role-legend-symbol" style="pointer-events: none;"><path transform="translate(5,5)" d="M5,0A5,5,0,1,1,-5,0A5,5,0,1,1,5,0" style="fill: #ff99cc; stroke-width: 1.5; opacity: 1;"></path><path transform="translate(5,20)" d="M5,0A5,5,0,1,1,-5,0A5,5,0,1,1,5,0" style="fill: #66ccff; stroke-width: 1.5; opacity: 1;"></path></g><g class="mark-text role-legend-label" style="pointer-events: none;"><text text-anchor="start" transform="translate(18,8)" style="font: 10px sans-serif; fill: #000; opacity: 1;">Rest Combined</text><text text-anchor="start" transform="translate(18,23)" style="font: 10px sans-serif; fill: #000; opacity: 1;">Rs 100</text></g></g></g></g><g class="mark-text role-legend-title" style="pointer-events: none;"><text text-anchor="start" transform="translate(0,9)" style="font: bold 11px sans-serif; fill: #000; opacity: 1;">Partial Contribution</text></g></g></g></g></g></g></g></g></svg>